<?xml version="1.0" standalone="no"?><!DOCTYPE svg PUBLIC "-//W3C//DTD SVG 1.1//EN" "http://www.w3.org/Graphics/SVG/1.1/DTD/svg11.dtd"><svg t="1716125702921" class="icon" viewBox="0 0 1024 1024" version="1.1" xmlns="http://www.w3.org/2000/svg" p-id="10861" xmlns:xlink="http://www.w3.org/1999/xlink" width="16" height="16"><path d="M0 0h1024v1024H0z" fill="#D8D8D8" fill-opacity="0" p-id="10862"></path><path d="M824.05376 855.58272c51.712-6.28736 91.62752-48.3328 91.62752-99.28704V282.73664c0-51.712-41.18528-94.23872-93.96224-99.5328a45.0048 45.0048 0 1 1 6.85056-35.5328c69.39648 8.192 123.10528 64.79872 123.10528 133.36576v476.95872c0 68.95616-54.30272 125.80864-124.25216 133.51936a45.01504 45.01504 0 0 1-87.74656-14.11072 45.0048 45.0048 0 0 1 84.3776-21.8112zM194.79552 891.392C125.39904 883.18976 71.68 826.56256 71.68 757.99552V281.0368C71.68 212.48 125.39904 155.8528 194.79552 147.6608a45.01504 45.01504 0 0 1 88.8832 9.984 45.0048 45.0048 0 0 1-82.04288 25.5488c-52.76672 5.30432-93.952 47.83104-93.952 99.54304v473.55904c0 51.712 41.18528 94.24896 93.952 99.54304a45.0048 45.0048 0 1 1-6.85056 35.5328z" fill="#3153D4" p-id="10863"></path><path d="M453.3248 348.16a35.5328 35.5328 0 0 1 33.13664 22.67136l120.05376 308.9408a20.48 20.48 0 0 1-11.59168 26.48064 20.14208 20.14208 0 0 1-26.2144-11.58144L537.04704 611.328h-167.936l-31.40608 82.64704a21.16608 21.16608 0 0 1-27.27936 12.288 20.82816 20.82816 0 0 1-12.00128-27.136l121.6512-308.34688A35.7376 35.7376 0 0 1 453.34528 348.16z m-70.90176 227.84h141.312l-69.12-182.784h-2.048l-70.144 182.784zM692.4288 348.16c11.44832 0 20.736 9.28768 20.736 20.736v324.096a20.736 20.736 0 0 1-41.472 0v-324.096c0-11.44832 9.27744-20.736 20.736-20.736z" fill="#54C4C5" p-id="10864"></path></svg>