<?xml version="1.0" standalone="no"?><!DOCTYPE svg PUBLIC "-//W3C//DTD SVG 1.1//EN" "http://www.w3.org/Graphics/SVG/1.1/DTD/svg11.dtd"><svg t="1716125641004" class="icon" viewBox="0 0 1024 1024" version="1.1" xmlns="http://www.w3.org/2000/svg" p-id="7409" xmlns:xlink="http://www.w3.org/1999/xlink" width="16" height="16"><path d="M843.23779296875 245.0322265625v138.427734375h24.71923828125c14.83154296875 0 29.6630859375 14.83154296875 29.6630859375 29.6630859375s-14.83154296875 29.6630859375-29.6630859375 29.6630859375h-74.15771484375c24.71923828125 39.55078125 24.71923828125 93.93310546875 0 138.427734375h74.15771484375c14.83154296875 0 29.6630859375 14.83154296875 29.6630859375 29.6630859375s-14.83154296875 29.6630859375-29.6630859375 29.6630859375h-24.71923828125v138.427734375h24.71923828125c14.83154296875 0 29.6630859375 14.83154296875 29.6630859375 29.6630859375s-14.83154296875 29.6630859375-29.6630859375 29.6630859375H334.021484375c-98.876953125 0-153.25927734375-118.65234375-103.82080078125-197.75390625h-74.15771484375c-14.83154296875 0-29.6630859375-14.83154296875-29.6630859375-29.6630859375s14.83154296875-29.6630859375 29.6630859375-29.6630859375h24.71923828125V442.7861328125h-24.71923828125c-14.83154296875 0-29.6630859375-14.83154296875-29.6630859375-29.6630859375s14.83154296875-29.6630859375 29.6630859375-29.6630859375h74.15771484375c-49.4384765625-79.1015625 4.94384765625-197.75390625 103.82080078125-197.75390625h533.935546875c14.83154296875 0 29.6630859375 14.83154296875 29.6630859375 29.6630859375s-14.83154296875 29.6630859375-29.6630859375 29.6630859375h-24.71923828125z m-153.25927734375 197.75390625H215.369140625v138.427734375h474.609375c14.83154296875 0 34.60693359375-9.8876953125 44.49462890625-19.775390625 24.71923828125-29.6630859375 24.71923828125-74.15771484375 0-98.876953125-14.83154296875-9.8876953125-29.6630859375-19.775390625-44.49462890625-19.775390625z m118.65234375 197.75390625H334.021484375c-14.83154296875 0-34.60693359375 9.8876953125-44.49462890625 19.775390625-39.55078125 39.55078125-14.83154296875 118.65234375 44.49462890625 118.65234375H808.630859375V640.5400390625z m0-257.080078125V245.0322265625H334.021484375c-59.326171875 0-79.1015625 79.1015625-44.49462890625 118.65234375 9.8876953125 9.8876953125 24.71923828125 19.775390625 44.49462890625 19.775390625H808.630859375z" p-id="7410"></path></svg>