<?xml version="1.0" standalone="no"?><!DOCTYPE svg PUBLIC "-//W3C//DTD SVG 1.1//EN" "http://www.w3.org/Graphics/SVG/1.1/DTD/svg11.dtd"><svg t="1716123432426" class="icon" viewBox="0 0 1024 1024" version="1.1" xmlns="http://www.w3.org/2000/svg" p-id="3581" width="16" height="16" xmlns:xlink="http://www.w3.org/1999/xlink"><path d="M512.857954 557.019225c-33.976774 0-65.854982-7.195081-89.838587-20.186201l-383.038157-208.857226c-49.566117-26.981556-49.566117-70.951498 0-97.933054L423.019367 21.085586c49.566117-26.981556 130.111057-26.981556 179.577242 0l383.038158 208.857227c49.466185 26.981556 49.466185 70.951498 0 97.933053l-383.038158 208.857227c-23.883673 13.091051-55.761882 20.286133-89.738655 20.286132z m0-508.052698c-9.893237 0-19.886406 2.098565-27.381282 6.195764l-383.038158 208.857227c-15.089685 8.194398-15.089685 21.685176 0 29.879574l383.038158 208.857227c7.295013 3.997267 16.988387 6.095833 27.381282 6.095833s20.186201-2.198497 27.381283-6.095833l383.038157-208.857227c15.089685-8.194398 15.089685-21.685176 0-29.879574l-383.038157-208.857227c-7.594808-4.097199-17.488045-6.195765-27.381283-6.195764z" fill="#10d51d" p-id="3582"></path><path d="M518.753924 799.953157c-6.595491 0-13.190983-0.299795-19.886406-0.899385-29.279984-2.598224-58.6599-10.992486-78.74617-22.384698l-0.899385-0.59959L16.097537 525.94047c-13.290914-8.29433-17.388114-25.682444-9.093784-38.973358 8.29433-13.290914 25.682444-17.388114 38.973358-9.093783l402.524837 249.829218c9.993169 5.596174 30.279301 12.791256 55.362154 14.989753 19.686542 1.698839 48.866595 0.899385 76.647605-12.991119 89.738655-44.869328 395.429687-249.229628 398.427637-251.228262 12.991119-8.694057 30.579096-5.196448 39.273153 7.794672 8.694057 12.991119 5.196448 30.579096-7.794672 39.273153-12.691324 8.494193-311.686933 208.4575-404.623402 254.825802-25.882307 12.891188-55.66195 19.586611-87.040499 19.586611z" fill="#10d51d" p-id="3583"></path><path d="M518.753924 1024c-6.595491 0-13.190983-0.299795-19.886406-0.899385-29.279984-2.598224-58.6599-10.992486-78.74617-22.384698l-0.899385-0.59959L16.097537 749.987313c-13.290914-8.29433-17.388114-25.682444-9.093784-38.973358 8.29433-13.290914 25.682444-17.388114 38.973358-9.093783l402.524837 249.829218c9.993169 5.596174 30.279301 12.791256 55.362154 14.989753 19.686542 1.698839 48.866595 0.899385 76.647605-12.991119C670.250362 908.878696 975.941393 704.518396 978.939344 702.519762c12.991119-8.694057 30.579096-5.196448 39.273153 7.794671 8.694057 12.991119 5.196448 30.579096-7.794672 39.273154-12.691324 8.494193-311.686933 208.4575-404.623402 254.825802-25.882307 12.891188-55.66195 19.586611-87.040499 19.586611zM542.937392 26.981556l329.774568 169.883868 97.933054 82.043915L866.716059 348.761589 578.9128 511.650239l-79.94535 20.985654-97.933054-39.972674-285.804626-155.893433-84.242412-57.860447L73.258462 240.835366 411.027565 66.954231s93.835854-59.559286 131.909827-39.972675z" fill="#10d51d" p-id="3584"></path></svg>