<?xml version="1.0" standalone="no"?><!DOCTYPE svg PUBLIC "-//W3C//DTD SVG 1.1//EN" "http://www.w3.org/Graphics/SVG/1.1/DTD/svg11.dtd"><svg t="1716126014979" class="icon" viewBox="0 0 1024 1024" version="1.1" xmlns="http://www.w3.org/2000/svg" p-id="15670" xmlns:xlink="http://www.w3.org/1999/xlink" width="16" height="16"><path d="M894.570667 513.290667a375.989333 375.989333 0 0 0-4.138667-52.778667 375.861333 375.861333 0 0 0-95.818667-199.893333 383.797333 383.797333 0 0 0-79.712-65.856 380.576 380.576 0 0 0-58.549333-29.44 378.506667 378.506667 0 0 0-136.416-26.666667h-3.306667c-15.146667 0-29.984 0.885333-44.672 2.592C318.933333 159.253333 193.888 268.736 152.917333 413.493333a376.714667 376.714667 0 0 0-13.216 74.56A409.173333 409.173333 0 0 0 138.666667 516.608a375.946667 375.946667 0 0 0 62.453333 208.16 365.045333 365.045333 0 0 0 40.672 51.232 376.16 376.16 0 0 0 52.192 45.984 376.224 376.224 0 0 0 222.709333 72.576c193.621333 0 353.226667-145.653333 375.370667-333.290667 0.96-8.266667 1.696-16.682667 2.144-25.098666 0.288-6.496 0.512-13.002667 0.512-19.498667-0.149333-1.173333-0.149333-2.282667-0.149333-3.392m-175.392-106.666667a53.184 53.184 0 0 0 10.037333-93.674666v-3.029334c0-16.458667-0.885333-32.704-2.506667-48.714666a343.722667 343.722667 0 0 1 23.765334 21.621333 329.002667 329.002667 0 0 1 70.869333 105.12 327.52 327.52 0 0 1 25.984 128.672 328 328 0 0 1-128.746667-25.994667 356.053333 356.053333 0 0 1-21.621333-10.026666 461.888 461.888 0 0 0 22.218667-73.973334m83.488 154.666667a407.210667 407.210667 0 0 1-33.952 25.525333 424.064 424.064 0 0 1-71.232 38.688 416.384 416.384 0 0 1-122.4 30.997334 467.754667 467.754667 0 0 0 102.389333-132.8A376.138667 376.138667 0 0 0 802.666667 561.28M679.093333 260.170667a411.946667 411.946667 0 0 1 2.88 46.869333 53.152 53.152 0 1 0-10.186666 95.370667 421.44 421.44 0 0 1-15.797334 53.312 332.725333 332.725333 0 0 1-42.442666-35.946667A328.885333 328.885333 0 0 1 537.589333 301.866667c6.784-3.306667 13.653333-6.421333 20.661334-9.376a445.92 445.92 0 0 1 120.842666-32.32m-33.738666-48.288c3.104 1.322667 6.208 2.666667 9.237333 4.064a497.493333 497.493333 0 0 0-130.592 40 330.261333 330.261333 0 0 1-7.381333-70.048c44.661333 0 88 8.714667 128.736 25.984M495.733333 324.832c28.266667 71.605333 77.877333 132.501333 140.917334 174.954667A421.045333 421.045333 0 0 1 521.493333 639.818667a52.885333 52.885333 0 0 0-22.666666-5.013334 52.864 52.864 0 0 0-38.976 17.045334 417.28 417.28 0 0 1-88.725334-26.346667 421.312 421.312 0 0 1-71.242666-38.688c-0.586667-0.426667-1.248-0.810667-1.845334-1.258667a441.728 441.728 0 0 1 18.090667-50.933333 449.514667 449.514667 0 0 1 41.930667-77.216 452.288 452.288 0 0 1 18.741333-25.76 53.12 53.12 0 0 0 68.96-50.72 52.906667 52.906667 0 0 0-2.954667-17.568 436.234667 436.234667 0 0 1 38.165334-28.778667c4.789333-3.477333 9.738667-6.645333 14.762666-9.749333m-262.058666 363.2a326.304 326.304 0 0 1-21.781334-42.666667 327.882667 327.882667 0 0 1-24.213333-94.058666 468.522667 468.522667 0 0 0 56.842667 53.365333 505.738667 505.738667 0 0 0-10.848 83.349333m4.202666-152.512a419.893333 419.893333 0 0 1-49.450666-59.562666 329.365333 329.365333 0 0 1 23.466666-88.074667 330.677333 330.677333 0 0 1 70.869334-105.12 328.981333 328.981333 0 0 1 105.109333-70.858667 327.477333 327.477333 0 0 1 81.504-22.666666 379.530667 379.530667 0 0 0 11.445333 89.397333 503.2 503.2 0 0 0-72.128 51.530667 53.12 53.12 0 0 0-66.133333 68.501333 500.416 500.416 0 0 0-84.373333 155.904 382.165333 382.165333 0 0 1-20.309334-19.050667m42.816 193.333334c-0.213333-5.76-0.288-11.52-0.288-17.344 0-25.984 2.133333-51.68 6.421334-76.906667a464.768 464.768 0 0 0 144.085333 59.488l-5.088 2.208a417.002667 417.002667 0 0 1-145.130667 32.554667m540.650667-83.488a330.506667 330.506667 0 0 1-70.869333 105.12A328.906667 328.906667 0 0 1 645.354667 821.333333a327.872 327.872 0 0 1-128.736 25.984A328 328 0 0 1 387.872 821.333333a327.146667 327.146667 0 0 1-78.752-47.168 463.733333 463.733333 0 0 0 157.152-44.362666 53.152 53.152 0 0 0 82.826667-24.437334 464.928 464.928 0 0 0 289.44-112.565333 328.853333 328.853333 0 0 1-17.194667 52.554667" fill="#10d51d" p-id="15671"></path></svg>